<svg xmlns="http://www.w3.org/2000/svg" xmlns:xlink="http://www.w3.org/1999/xlink" version="1.1" x="0px" y="0px" viewBox="0 0 100 125" enable-background="new 0 0 100 100" xml:space="preserve"><path d="M67.424,38.077c0.244,0.055,0.521,0.21,0.686,0.375c0.701,0.787,1.117,0.947,1.393,0.947l0.236-0.047  c0.377,0.134,0.566,0.307,0.566,0.52c0,0.102-0.047,0.212-0.143,0.331v0.094c0,0.103,0.096,0.292,0.283,0.567  c0.032,0,0.977,0.346,2.173,0.472c3.667,0.598,5.619,0.897,5.854,0.897h0.143c1.156-0.346,1.802-0.52,1.936-0.52  c6.8,0.661,11.301,1.196,13.505,1.605c0.63,0,0.944,0.126,0.944,0.378c-0.504,2.684-0.913,5.312-1.228,7.886  c-0.071,1.165-0.149,1.747-0.236,1.747h-0.52c-0.031,0-0.047-0.016-0.047-0.047c-0.472,0-1.464-0.284-2.976-0.851  c-1.621-0.535-4.47-1.526-8.546-2.975c-7.5-2.613-11.294-3.919-11.38-3.919h-0.661c-0.063,0-0.095,0.032-0.095,0.095v0.094  c0,0.134,0.031,0.26,0.095,0.378c0,0.094-0.032,0.205-0.095,0.331c-0.377,0.551-0.566,0.881-0.566,0.992l2.125,6.894v0.048  c0,0.361-0.11,0.629-0.33,0.803c-1.434,0.661-2.393,0.991-2.881,0.991c-0.756,0-1.133-0.283-1.133-0.85  c0-0.126,0.031-0.441,0.094-0.944v-0.095c-0.779-2.896-1.424-4.801-1.936-5.713c0-0.244-0.395-0.464-1.181-0.661  c-0.448,0.598-0.952,0.897-1.511,0.897c-0.079-0.031-0.49,0.002-1.229-0.047c-2.229-0.148-2.984,0.032-3.021-0.85h-0.047  l-0.567-0.047c0,0-0.646-0.037-0.878-0.124c-0.354-0.133-0.303-0.442-0.303-0.82v-0.472h-0.094h-0.189h-0.094  c0,0.142-0.158,0.913-0.473,2.313c-0.613,1.975-1.291,3.66-2.03,5.052c-0.787,1.456-2.601,4.36-8.169,9.256c0,0,0,0-0.473,0.047  l-0.377-0.189c-0.512-0.559-1.605-2.313-1.605-2.313l-0.614-0.991c0,0-1.181-1.795-1.181-1.889c0.173-0.221,0.599-0.567,1.275-1.039  c0.669-0.599,1.03-0.897,1.086-0.897c2.046-1.983,3.242-3.353,3.589-4.107c0.755-1.188,1.573-3.235,2.455-6.139  c-0.063-0.22-0.095-0.409-0.095-0.566v-0.189h-2.786c0,0,2.7,0-1.894-0.002c-0.541,0-1.038,0.337-1.809,0.487  c-0.347-0.04-0.862-0.083-1.208-0.202c-1.102-0.409-2.141-0.614-3.116-0.614h-3.211c-1.44,0-3.439,0.016-5.997,0.047  c-0.401-0.197-0.606-0.307-0.614-0.331c-0.661-0.063-0.991-0.205-0.991-0.425c0-0.103,0.047-0.212,0.142-0.331v-0.095  c0-0.188-0.095-0.283-0.283-0.283h-0.52c-0.165,0-0.307-0.047-0.425-0.142h-6.092c-0.126,0.079-0.188,0.142-0.188,0.189  l-0.031,0.292l0.551-0.008h7.417c0.055,0,0.087,0.032,0.095,0.094v0.331h-8.268c-0.063,0-0.834,0-0.944,0H8.589  c-0.157,0-0.288,0.114-0.792,0.271C7.199,43.88,6.7,43.688,6.7,43.555c0-0.268-0.3-0.457-0.897-0.567l-0.33,0.142  C5.157,43.043,5,42.775,5,42.327c0-0.63,0.142-0.945,0.425-0.945l0.331,0.142c0.204-0.063,0.346-0.095,0.425-0.095v-0.425  c0.252-0.032,0.378-0.079,0.378-0.142v-3.4c0-0.378,0.204-0.567,0.613-0.567h0.331c0.629,0,0.944,0.205,0.944,0.614  c0,0.031-0.016,0.079-0.048,0.142c0,0.551,0.441,1.621,1.322,3.211c0.283,0.22,0.425,0.394,0.425,0.519h5.761  c0.189-0.118,0.284-0.197,0.284-0.236c1.164-0.291,1.747-0.543,1.747-0.755c0.181-0.04,0.59-0.638,1.228-1.794  c3.345-0.063,5.485-0.095,6.422-0.095c0.228-0.094,0.369-0.142,0.425-0.142h0.897c0.235,0,0.409-0.126,0.519-0.377  c0.441-0.095,0.661-0.173,0.661-0.236c0.653-0.063,3.833-0.142,9.539-0.236c0.047,0,0.268-0.016,0.661-0.047  c0,0.047,0.204,0.126,0.613,0.236c0.213,0.252,0.339,0.378,0.378,0.378H67.424z M60.86,45.349h-2.786  c-0.094,0.606-0.142,1.251-0.142,1.936v0.433c0,0.055,0.095,0.455,0.331,0.559c0.229,0.101,1.063,0.167,3.486,0.223  c0.725,0,1.057-0.257,1.328-0.625l0.096-0.148c0-0.126-0.063-0.653,0-0.913c0-0.48-0.047-0.921-0.141-1.322  c-0.725,0.433-1.087,0.874-1.087,1.322c-0.259,0.488-0.685,0.834-1.274,1.039h-0.189l-0.094-0.047v-0.047  c0.755-0.464,1.133-0.858,1.133-1.181c-0.031,0-0.047-0.708-0.047-0.708C61.34,45.695,61.136,45.522,60.86,45.349z M20.252,40.58  c-0.157,0.079-0.236,0.142-0.236,0.189v0.378h6.233V40.58H20.252z M13.122,43.035h-2.691v0.047v0.094v0.047l-0.009,0.103  c1.134,0,5.906-0.047,5.816-0.056c-0.063-0.006-0.071,0,0,0c-0.126-0.126-0.188-0.221-0.188-0.284  C14.743,43.02,13.767,43.035,13.122,43.035z M8.589,39.824H7.55c-0.283,0.047-0.425,0.173-0.425,0.378  c0,0.409,0.126,0.614,0.378,0.614h0.991c0.221,0,0.331-0.11,0.331-0.331v-0.378C8.715,39.919,8.636,39.824,8.589,39.824z"/></svg>