<svg xmlns:x="http://ns.adobe.com/Extensibility/1.0/" xmlns:i="http://ns.adobe.com/AdobeIllustrator/10.0/" xmlns:graph="http://ns.adobe.com/Graphs/1.0/" xmlns="http://www.w3.org/2000/svg" xmlns:xlink="http://www.w3.org/1999/xlink" xmlns:a="http://ns.adobe.com/AdobeSVGViewerExtensions/3.0/" version="1.1" x="0px" y="0px" viewBox="0 0 100 125" enable-background="new 0 0 100 100" xml:space="preserve" transform="matrix(-1,0,0,1,0,0)"><path fill-rule="evenodd" clip-rule="evenodd" d="M82.0917969,36.7226563h-1.0424805v-0.121582  c0-0.2470703-0.2124023-0.4482422-0.4770508-0.4482422h-1.0141602c-0.2646484,0-0.4775391,0.2011719-0.4775391,0.4482422  c0,0.0405273-33.5615234,0.1044922-38.3515625,0.1152344l-0.2753906-1.409668h-1.5947266v-0.5361328h-8.7158203v0.5361328  h-1.6635742v-0.5361328h-8.7216797v0.5361328H8.3129883v10.4770508h11.4448242v0.4887695h8.7216797v-0.4887695h1.6635742v0.4887695  h8.7158203v-0.4887695h1.5947266l0.2705078-1.3823242h4.9101563l0.0058594,0.5756836l12.2211914,0.0117188  c1.6694336,0.1787109,2.0786133-0.0166016,2.5615234,1.9570313v1.4799805c0.1787109,2.625,1.3188477,3.206543,3.8515625,3.2006836  h5.2387695l1.203125,0.1904297c0.7768555,0.4086914,2.078125,0.4887695,2.6943359,1.7089844  c0.2705078,0.5244141-0.3681641,2.2167969,0.1835938,2.6254883c1.0825195,0.8056641,0.7719727,1.2373047,0.7197266,2.6767578  c-0.0341797,1.0703125,0.1157227,1.4912109,1.7270508,2.2797852c0.840332,1.8652344-0.1152344,4.1445313,1.8427734,4.121582  l13.3554688-0.2241211c1.0009766-0.0117188,0.0805664-5.112793-0.4208984-5.9125977l-6.1079102-9.7402344  c-0.4482422-2.4521484-2.3598633-4.5473633,3.4775391-4.7260742c0.8691406-0.0288086,0.5292969-0.5991211,0.4375-0.6445313  c-1.8188477-0.9619141-3.972168-0.703125-3.9892578-2.0898438c-0.0522461-5.0776367,1.9287109-3.9321289-1.6411133-4.3232422  C82.5058594,37.6435547,82.5864258,36.7226563,82.0917969,36.7226563L82.0917969,36.7226563z M66.2026367,45.9448242  c1.0024414,0,1.6875,0.7602539,1.7734375,1.6865234c0.0571289,0.690918-0.7080078,1.3071289-1.1166992,2.4467773  c-0.2192383,0.2011719,1.7783203,0.3857422,1.5195313,0.546875h-4.1391602c-2.5791016,0-2.7172852-0.9438477-2.7172852-3.2241211  C62.6972656,45.3286133,63.7963867,45.9389648,66.2026367,45.9448242L66.2026367,45.9448242z"></path></svg>