<svg xmlns="http://www.w3.org/2000/svg" xmlns:xlink="http://www.w3.org/1999/xlink" version="1.1" x="0px" y="0px" viewBox="-5.0 -10.0 110.0 135.0" enable-background="new 0 0 100 100" xml:space="preserve"><path d="M92.55,47.81v-1.67H52.2c0,0-6.19-0.32-6.96-0.32c-0.07-0.39-0.07-0.39-0.07-0.39h-0.55l-0.03-0.46h1.53  c0,0,2.38,0.94,5.99,0.95c0.31,0,0.979,0,0.979,0v-4.08c0,0-0.609,0.02-0.92,0.04c-2.45,0.09-5.83,1.2-5.83,1.2  c-1.82,0.01-1.82,0.01-1.82,0.01v-0.15l-1.07-0.02l-0.01,0.22h-1.97l-0.02-2.67h-1.83l-0.03,2.67l-1.92,0.02v-0.24l-0.84,0.02  l-0.03,0.23l-1.94-0.06l-0.56-0.23l-0.86-0.02l-0.17,0.16l-0.33,0.01l-0.05-0.3l-2.44-0.04c0,0-1.46-0.1-1.77-0.27  c-0.03,0.63-0.02,3.08-0.02,3.08s0.311,0.04,4.34-0.25c0-0.16,0.34-0.19,0.34-0.19l0.21,0.21l1.18-0.02c0,0-0.04-0.3,0.57-0.3  c0.61,0,1.39-0.03,1.39-0.03v0.6l-0.63,0.03v0.39l-1.04,0.09l-0.19,0.14h-1.31l-0.25,0.14l-1.11,0.05c0,0.08-0.01,1.23-0.55,1.48  c-0.56,0.27-2.32,1.34-4.3,1.21c-0.36-0.03-0.78-0.78-1.11-0.93c-0.42-0.18-18.72-0.1-18.72-0.1s-0.21,1.79,0.5,3.34  c0,2.38,0,5.8,0,5.8l16.31-3.61c0,0,0.77-0.39,0.64,0.58c1.03,0.65,2.19,1.03,3.29,1.16c0.45-0.06,0.58-4.25,3.09-4.19  c0,0,0.53-0.05,0.65,1.16c0.26,1.29,1.87,1.23,3.03,1.101c0.64-0.261,0.84-1.03,0.77-1.87c0.2-0.13-0.06-1.03,1.74-0.71  c2.13,0,22.43-0.78,22.43-0.78l0.32,0.5l0.58,0.28c0,0,1.1,1.74,3.49,1.48c1.859-0.26,2.83-0.71,2.83-0.71l8.38-0.13  c0,0,1.05-0.01,2.34-0.02c0.21,0,1.47,0.649,1.47-0.46s-1.399-0.47-1.399-0.47l-1.4,0.03H73.02l-0.579-0.82H68.38l0.061-1.87H92.55z   M34.33,53.13c-0.68,0.061-1.58-0.11-1.89-0.46c-0.32-0.36-0.36-1-0.15-1.4c0.28-0.52,0.77-0.419,0.77-0.419s-1,1.12-0.16,1.84  c0.52,0.449,0.04-0.08-0.02-0.54c-0.06-0.381,0.12-1.34,1.27-1.291c1.14,0.04,1.16,0.1,1.27,0.95  C35.52,52.67,35.02,53.06,34.33,53.13z"/></svg>